<mxfile host="Electron" modified="2023-11-13T13:17:29.911Z" agent="Mozilla/5.0 (X11; Linux x86_64) AppleWebKit/537.36 (KHTML, like Gecko) draw.io/22.0.3 Chrome/114.0.5735.289 Electron/25.8.4 Safari/537.36" etag="Igcsfuq20f6ZUa-xd90T" version="22.0.3" type="device">
  <diagram name="Page-1" id="Nu7FwPgnpkAzUqIKCI9j">
    <mxGraphModel dx="574" dy="334" grid="1" gridSize="10" guides="1" tooltips="1" connect="1" arrows="1" fold="1" page="1" pageScale="1" pageWidth="850" pageHeight="1100" math="0" shadow="0">
      <root>
        <mxCell id="0" />
        <mxCell id="1" parent="0" />
        <mxCell id="hCmk-TLnzmfPZUY373L3-7" style="edgeStyle=orthogonalEdgeStyle;rounded=0;orthogonalLoop=1;jettySize=auto;html=1;entryX=1;entryY=0.5;entryDx=0;entryDy=0;endArrow=open;endFill=0;" edge="1" parent="1" source="hCmk-TLnzmfPZUY373L3-1" target="hCmk-TLnzmfPZUY373L3-6">
          <mxGeometry relative="1" as="geometry" />
        </mxCell>
        <mxCell id="hCmk-TLnzmfPZUY373L3-1" value="&lt;font face=&quot;Courier New&quot;&gt;&amp;lt;%0010 0110&amp;gt;&lt;br&gt;&lt;/font&gt;" style="text;html=1;strokeColor=none;fillColor=none;align=center;verticalAlign=middle;whiteSpace=wrap;rounded=0;" vertex="1" parent="1">
          <mxGeometry x="330" y="410" width="90" height="20" as="geometry" />
        </mxCell>
        <mxCell id="hCmk-TLnzmfPZUY373L3-10" style="edgeStyle=orthogonalEdgeStyle;rounded=0;orthogonalLoop=1;jettySize=auto;html=1;entryX=0.5;entryY=1;entryDx=0;entryDy=0;strokeColor=default;endArrow=open;endFill=0;exitX=0.5;exitY=0;exitDx=0;exitDy=0;" edge="1" parent="1" source="hCmk-TLnzmfPZUY373L3-2" target="hCmk-TLnzmfPZUY373L3-5">
          <mxGeometry relative="1" as="geometry">
            <Array as="points" />
          </mxGeometry>
        </mxCell>
        <mxCell id="hCmk-TLnzmfPZUY373L3-2" value="&amp;lt;$26&amp;gt;" style="text;html=1;strokeColor=none;fillColor=none;align=center;verticalAlign=middle;whiteSpace=wrap;rounded=0;" vertex="1" parent="1">
          <mxGeometry x="440" y="415" width="40" height="10" as="geometry" />
        </mxCell>
        <mxCell id="hCmk-TLnzmfPZUY373L3-3" value="=" style="text;html=1;strokeColor=none;fillColor=none;align=center;verticalAlign=middle;whiteSpace=wrap;rounded=0;" vertex="1" parent="1">
          <mxGeometry x="425" y="415" width="10" height="10" as="geometry" />
        </mxCell>
        <mxCell id="hCmk-TLnzmfPZUY373L3-5" value="&lt;font face=&quot;Courier New&quot;&gt;Notation héxadécimale&lt;/font&gt;" style="text;html=1;strokeColor=none;fillColor=none;align=center;verticalAlign=middle;whiteSpace=wrap;rounded=0;" vertex="1" parent="1">
          <mxGeometry x="410" y="340" width="100" height="30" as="geometry" />
        </mxCell>
        <mxCell id="hCmk-TLnzmfPZUY373L3-6" value="&lt;font face=&quot;Courier New&quot;&gt;Notation binaire&lt;/font&gt;" style="text;html=1;strokeColor=none;fillColor=none;align=center;verticalAlign=middle;whiteSpace=wrap;rounded=0;" vertex="1" parent="1">
          <mxGeometry x="280" y="370" width="60" height="30" as="geometry" />
        </mxCell>
        <mxCell id="hCmk-TLnzmfPZUY373L3-14" style="edgeStyle=orthogonalEdgeStyle;rounded=0;orthogonalLoop=1;jettySize=auto;html=1;entryX=0;entryY=0.5;entryDx=0;entryDy=0;endArrow=open;endFill=0;" edge="1" parent="1" source="hCmk-TLnzmfPZUY373L3-11" target="hCmk-TLnzmfPZUY373L3-13">
          <mxGeometry relative="1" as="geometry">
            <Array as="points">
              <mxPoint x="518" y="395" />
              <mxPoint x="518" y="395" />
              <mxPoint x="518" y="385" />
            </Array>
          </mxGeometry>
        </mxCell>
        <mxCell id="hCmk-TLnzmfPZUY373L3-11" value="&amp;lt;38&amp;gt;" style="text;html=1;strokeColor=none;fillColor=none;align=center;verticalAlign=middle;whiteSpace=wrap;rounded=0;" vertex="1" parent="1">
          <mxGeometry x="505" y="415" width="25" height="10" as="geometry" />
        </mxCell>
        <mxCell id="hCmk-TLnzmfPZUY373L3-12" value="=" style="text;html=1;strokeColor=none;fillColor=none;align=center;verticalAlign=middle;whiteSpace=wrap;rounded=0;" vertex="1" parent="1">
          <mxGeometry x="490" y="415" width="10" height="10" as="geometry" />
        </mxCell>
        <mxCell id="hCmk-TLnzmfPZUY373L3-13" value="&lt;font face=&quot;Courier New&quot;&gt;Notation décimale&lt;/font&gt;" style="text;html=1;strokeColor=none;fillColor=none;align=center;verticalAlign=middle;whiteSpace=wrap;rounded=0;" vertex="1" parent="1">
          <mxGeometry x="530" y="370" width="60" height="30" as="geometry" />
        </mxCell>
      </root>
    </mxGraphModel>
  </diagram>
</mxfile>
